<svg xmlns="http://www.w3.org/2000/svg" width="67.118" height="54.796" viewBox="0 0 67.118 54.796">
  <path id="패스_1" data-name="패스 1" d="M407.126-442.317c-.261.588-2.45,5.325-4.8,10.551-2.352,5.194-4.475,9.636-4.671,9.832a50.889,50.889,0,0,1-5.259,2.581,157.629,157.629,0,0,0-37.86,23.846c-2.875,2.483-2.875,2.483-4.345,2.254-.817-.1-1.437-.392-1.437-.621a37.1,37.1,0,0,1,2.907-4.769c9.963-14.994,24.042-27.6,42.825-38.35,5-2.875,12.772-6.795,13-6.533A2.409,2.409,0,0,1,407.126-442.317Zm-30.967,7.187c-1.7,1.307-5.194,4.443-7.774,6.958a95.4,95.4,0,0,0-21,29.955c-.947,2.123-1.927,3.855-2.156,3.855-1.274,0-5-1.078-4.835-1.4.065-.229,3.528-7.807,7.676-16.888,8.069-17.738,9.016-18.848,11.956-20.253,1.274-.621,16.888-4.443,18.587-4.541C378.935-437.482,377.857-436.437,376.159-435.13Zm16.235,25.153c-2.058,4.8-6.958,15.092-7.774,16.333a11.606,11.606,0,0,1-4.737,4.149c-2.189,1.111-7.611.98-13.589-.294-9.9-2.123-11.008-2.385-11.008-2.581a12.2,12.2,0,0,1,2.221-1.7,141.978,141.978,0,0,1,21.135-11.6c4.671-2.025,13.164-5.325,13.818-5.357C392.785-411.023,392.753-410.794,392.393-409.978Z" transform="translate(-340.384 443.538)" fill="#94c256"/>
</svg>
